HIERARCHY
ROOT Hips
{
 OFFSET 0.000000 0.000000 0.000000
 CHANNELS 6 Xposition Yposition Zposition Yrotation Xrotation Zrotation
 JOINT Chest
 {
  OFFSET 0.000000 9.585900 0.002600
  CHANNELS 3 Yrotation Xrotation Zrotation
  JOINT Chest2
  {
   OFFSET 0.000000 9.601200 -0.005300
   CHANNELS 3 Yrotation Xrotation Zrotation
   JOINT Chest3
   {
    OFFSET 0.000000 9.561800 0.000000
    CHANNELS 3 Yrotation Xrotation Zrotation
    JOINT Chest4
    {
     OFFSET 0.000000 9.552100 0.000000
     CHANNELS 3 Yrotation Xrotation Zrotation
     JOINT Neck
     {
      OFFSET 0.000000 14.453000 0.000000
      CHANNELS 3 Yrotation Xrotation Zrotation
      JOINT Head
      {
       OFFSET 0.000000 8.936500 -0.011300
       CHANNELS 3 Yrotation Xrotation Zrotation
       End Site
       {
        OFFSET 0.000000 17.073600 -0.006000
       }
      }
     }
     JOINT RightCollar
     {
      OFFSET -2.921100 9.558500 0.000000
      CHANNELS 3 Yrotation Xrotation Zrotation
      JOINT RightShoulder
      {
       OFFSET -13.519700 0.000000 0.000000
       CHANNELS 3 Yrotation Xrotation Zrotation
       JOINT RightElbow
       {
        OFFSET 0.000000 -29.696600 0.000000
        CHANNELS 3 Yrotation Xrotation Zrotation
        JOINT RightWrist
        {
         OFFSET 0.000000 -24.004700 0.000000
         CHANNELS 3 Yrotation Xrotation Zrotation
         End Site
         {
          OFFSET 0.000000 -17.728500 0.000000
         }
        }
       }
      }
     }
     JOINT LeftCollar
     {
      OFFSET 2.921100 9.558500 0.000000
      CHANNELS 3 Yrotation Xrotation Zrotation
      JOINT LeftShoulder
      {
       OFFSET 13.519700 0.000000 0.000000
       CHANNELS 3 Yrotation Xrotation Zrotation
       JOINT LeftElbow
       {
        OFFSET 0.000000 -29.696600 0.000000
        CHANNELS 3 Yrotation Xrotation Zrotation
        JOINT LeftWrist
        {
         OFFSET 0.000000 -24.004700 0.000000
         CHANNELS 3 Yrotation Xrotation Zrotation
         End Site
         {
          OFFSET 0.000000 -17.728500 0.000000
         }
        }
       }
      }
     }
    }
   }
  }
 }
 JOINT RightHip
 {
  OFFSET -7.771700 -0.012900 -0.001300
  CHANNELS 3 Yrotation Xrotation Zrotation
  JOINT RightKnee
  {
   OFFSET 0.000000 -40.869800 0.001200
   CHANNELS 3 Yrotation Xrotation Zrotation
   JOINT RightAnkle
   {
    OFFSET 0.000000 -39.717900 0.002100
    CHANNELS 3 Yrotation Xrotation Zrotation
    JOINT RightToe
    {
     OFFSET 0.000000 -4.965400 11.033500
     CHANNELS 3 Yrotation Xrotation Zrotation
     End Site
     {
      OFFSET 0.000000 -1.423100 5.872300
     }
    }
   }
  }
 }
 JOINT LeftHip
 {
  OFFSET 7.771700 -0.012900 -0.001300
  CHANNELS 3 Yrotation Xrotation Zrotation
  JOINT LeftKnee
  {
   OFFSET 0.000000 -40.869800 0.001200
   CHANNELS 3 Yrotation Xrotation Zrotation
   JOINT LeftAnkle
   {
    OFFSET 0.000000 -39.717900 0.002100
    CHANNELS 3 Yrotation Xrotation Zrotation
    JOINT LeftToe
    {
     OFFSET 0.000000 -4.965400 11.033500
     CHANNELS 3 Yrotation Xrotation Zrotation
     End Site
     {
      OFFSET 0.000000 -1.423100 5.872300
     }
    }
   }
  }
 }
}
MOTION
Frames: 14
Frame Time: 0.008333
-68.121425 63.129044 12.593325 163.499911 -51.647680 -2.842069 8.506630 25.962010 4.809699 1.366824 4.555757 0.380974 2.181174 7.202007 0.654319 6.938662 21.177269 2.848272 1.562961 15.476094 1.694657 2.329461 -7.062274 2.586597 5.401993 3.430533 5.985911 -4.452822 -6.899238 -12.483099 -69.636398 -47.530895 116.755569 1.920458 3.533269 -13.751498 -10.406557 2.871148 0.125584 -7.020807 -8.903793 17.861594 139.207037 -78.403894 -162.789770 7.478776 -4.347451 -2.866208 -4.263452 -8.853667 11.045243 -25.592933 74.346220 -23.541506 0.514749 -12.978362 -2.300299 -0.340064 0.786829 -0.131589 -1.654953 -15.301453 1.822906 14.046656 61.895822 7.398838 -2.296640 -4.209062 1.589606 -0.331555 -0.904978 -0.112478
-68.125360 63.131041 12.594633 163.525698 -51.657975 -2.854329 8.507149 25.968264 4.825835 1.366122 4.557069 0.380871 2.180112 7.203906 0.654030 6.936303 21.180319 2.843662 1.563310 15.479438 1.694327 2.332912 -7.056338 2.578355 5.415129 3.430402 5.982339 -4.461392 -6.892530 -12.467902 -69.589674 -47.549999 116.715615 1.923556 3.529203 -13.764650 -10.415966 2.863359 0.134229 -7.010817 -8.897892 17.855368 139.218162 -78.425615 -162.811825 7.466247 -4.338154 -2.875820 -4.263392 -8.840426 11.057326 -25.658428 74.330345 -23.616449 0.488647 -12.982314 -2.286538 -0.319428 0.791979 -0.125853 -1.615654 -15.282384 1.820367 14.028744 61.872509 7.396966 -2.340536 -4.180721 1.591858 -0.325741 -0.883371 -0.100484
-68.131912 63.132462 12.595133 163.546021 -51.664418 -2.846645 8.519268 25.968425 4.835945 1.366436 4.559306 0.380806 2.162298 7.208020 0.644212 6.932150 21.182436 2.844211 1.585718 15.485715 1.685659 2.319595 -7.055194 2.581346 5.434769 3.429859 5.977768 -4.491071 -6.892002 -12.457259 -69.571892 -47.557274 116.702820 1.924049 3.550266 -13.760593 -10.421158 2.855479 0.144905 -7.004481 -8.889397 17.849679 139.232917 -78.445794 -162.831555 7.453195 -4.326148 -2.887863 -4.269377 -8.835222 11.043203 -25.678730 74.327367 -23.664632 0.506289 -12.980842 -2.257101 -0.344506 0.790948 -0.141738 -1.608786 -15.274526 1.796474 14.087860 61.855153 7.444334 -2.373111 -4.139640 1.595088 -0.300630 -0.881782 -0.095547
-68.138184 63.133390 12.595841 163.568775 -51.666400 -2.843689 8.503598 25.972768 4.822310 1.366429 4.559704 0.380830 2.184023 7.207664 0.656912 6.902515 21.184581 2.831823 1.589015 15.487191 1.683879 2.340838 -7.044655 2.557269 5.462391 3.426813 5.972623 -4.520189 -6.887999 -12.445964 -69.520666 -47.570479 116.675048 1.930894 3.547073 -13.767205 -10.400477 2.837218 0.161769 -6.999936 -8.867376 17.838462 139.234098 -78.442790 -162.852222 7.431515 -4.301914 -2.892108 -4.277419 -8.834623 11.026514 -25.698823 74.326630 -23.694449 0.503572 -12.979098 -2.248527 -0.344387 0.787851 -0.140336 -1.604822 -15.270470 1.773287 14.124674 61.839220 7.474311 -2.391736 -4.109181 1.601276 -0.296620 -0.848488 -0.102361
-68.144090 63.134363 12.596264 163.575678 -51.668992 -2.830862 8.497620 25.977753 4.810240 1.366370 4.560112 0.380888 2.194176 7.208808 0.665326 6.896820 21.186521 2.827996 1.582076 15.486188 1.680152 2.337768 -7.045272 2.556520 5.478549 3.419421 5.966776 -4.513488 -6.875585 -12.441283 -69.471414 -47.601802 116.629276 1.937920 3.560189 -13.762738 -10.404921 2.828640 0.169345 -6.989445 -8.860321 17.830799 139.255991 -78.448815 -162.885492 7.410199 -4.278562 -2.894225 -4.272012 -8.834309 11.014132 -25.719667 74.325013 -23.725176 0.503287 -12.980609 -2.235824 -0.349958 0.789192 -0.140837 -1.571758 -15.260805 1.750939 14.117318 61.818062 7.481775 -2.420168 -4.092110 1.605288 -0.281605 -0.845788 -0.097494
-68.150525 63.135005 12.596328 163.585941 -51.669107 -2.817737 8.493921 25.978111 4.804471 1.366631 4.561173 0.381008 2.186346 7.211230 0.659879 6.907381 21.187029 2.834212 1.580296 15.488052 1.674811 2.336333 -7.042150 2.547259 5.483926 3.414428 5.959618 -4.525451 -6.870794 -12.438469 -69.439211 -47.619937 116.606145 1.937936 3.547637 -13.767138 -10.418178 2.824693 0.169726 -6.978457 -8.857619 17.827037 139.330061 -78.472306 -162.963817 7.402214 -4.267020 -2.895744 -4.258124 -8.841562 11.002424 -25.759611 74.325511 -23.772352 0.502645 -12.974331 -2.224600 -0.359091 0.782916 -0.136473 -1.568510 -15.257927 1.730176 14.104474 61.807349 7.464215 -2.430833 -4.075139 1.609991 -0.289866 -0.826935 -0.101381
-68.155628 63.136144 12.595984 163.591418 -51.672688 -2.808020 8.503231 25.980693 4.819290 1.358018 4.564132 0.370337 2.180396 7.212203 0.655241 6.919347 21.196005 2.850889 1.583203 15.487119 1.659791 2.329934 -7.047064 2.536543 5.473496 3.403688 5.942915 -4.520944 -6.867373 -12.438881 -69.405007 -47.642065 116.581848 1.935003 3.530402 -13.773964 -10.431806 2.811190 0.162121 -6.977621 -8.857481 17.822546 139.414246 -78.505866 -163.036628 7.397247 -4.261701 -2.897075 -4.248640 -8.841964 10.993572 -25.782653 74.325341 -23.797268 0.493336 -12.968933 -2.221556 -0.354033 0.778400 -0.132238 -1.558179 -15.249044 1.722038 14.027127 61.803335 7.378255 -2.398970 -4.075018 1.634937 -0.309353 -0.787898 -0.117336
-68.160484 63.138290 12.594374 163.595290 -51.683796 -2.795979 8.503941 25.993333 4.819809 1.356665 4.564410 0.370666 2.187626 7.217864 0.664944 6.903809 21.198733 2.838106 1.580009 15.483388 1.654137 2.356251 -7.042729 2.505222 5.496088 3.389556 5.931172 -4.524055 -6.860690 -12.431999 -69.388497 -47.661918 116.553335 1.940830 3.547451 -13.767227 -10.428654 2.798361 0.168579 -6.969593 -8.850230 17.812748 139.569681 -78.563540 -163.179931 7.416788 -4.280308 -2.908515 -4.245569 -8.832103 10.979353 -25.777195 74.327440 -23.800524 0.492202 -12.962952 -2.217106 -0.353290 0.775703 -0.138281 -1.543934 -15.230426 1.711303 13.977119 61.796914 7.325805 -2.399797 -4.083879 1.645335 -0.295751 -0.767667 -0.118577
-68.165113 63.139722 12.592918 163.606378 -51.689083 -2.790421 8.501236 26.002010 4.821228 1.364596 4.567102 0.380628 2.171889 7.216288 0.649277 6.906805 21.204153 2.838671 1.577011 15.478880 1.650920 2.367107 -7.040992 2.488599 5.516801 3.377620 5.923605 -4.498645 -6.865017 -12.433452 -69.409748 -47.660952 116.521370 1.959208 3.583620 -13.760425 -10.425400 2.784370 0.177342 -6.957576 -8.842198 17.804900 139.659826 -78.598698 -163.270892 7.421427 -4.285153 -2.913128 -4.244139 -8.827962 10.974021 -25.796958 74.329161 -23.832508 0.482248 -12.964233 -2.208420 -0.352085 0.775475 -0.136546 -1.542355 -15.221862 1.696909 13.962072 61.793861 7.307837 -2.399018 -4.094329 1.645085 -0.285800 -0.752756 -0.116025
-68.168696 63.140615 12.591819 163.618536 -51.689687 -2.791397 8.500836 26.005702 4.828680 1.363956 4.568282 0.379846 2.166109 7.215971 0.643802 6.908926 21.209094 2.838382 1.578220 15.478082 1.644991 2.373032 -7.043713 2.476165 5.561477 3.351823 5.915897 -4.517478 -6.860471 -12.431137 -69.375404 -47.680918 116.465489 1.972889 3.596302 -13.760035 -10.424215 2.771922 0.188168 -6.954620 -8.833949 17.797370 139.715065 -78.626755 -163.319413 7.430880 -4.300202 -2.923911 -4.241599 -8.828298 10.979418 -25.850564 74.325302 -23.898538 0.473793 -12.967037 -2.193476 -0.349582 0.775769 -0.134619 -1.546007 -15.217585 1.687331 13.956532 61.791465 7.299389 -2.392880 -4.116860 1.635741 -0.294520 -0.730866 -0.108568
-68.173228 63.141432 12.590044 163.626907 -51.689670 -2.782001 8.499446 26.009473 4.828095 1.363103 4.569387 0.379062 2.172706 7.221163 0.649571 6.893370 21.209506 2.826774 1.592819 15.482969 1.631567 2.354219 -7.055838 2.488224 5.590351 3.327829 5.908275 -4.529922 -6.854300 -12.429295 -69.290035 -47.729814 116.379462 1.996356 3.615472 -13.759824 -10.424482 2.759983 0.198704 -6.937686 -8.820360 17.789523 139.761335 -78.649136 -163.372224 7.437324 -4.319351 -2.933824 -4.242957 -8.829345 10.970288 -25.856048 74.329465 -23.919990 0.470381 -12.970403 -2.180460 -0.355378 0.776124 -0.136387 -1.536103 -15.216869 1.677582 14.002636 61.789377 7.328070 -2.429317 -4.123805 1.649162 -0.301987 -0.726896 -0.111797
-68.176942 63.142185 12.588321 163.634723 -51.688431 -2.776388 8.499577 26.011602 4.830533 1.362023 4.570290 0.378197 2.165092 7.219585 0.642936 6.894770 21.213624 2.826535 1.597438 15.484545 1.622876 2.365033 -7.059663 2.473017 5.600845 3.315541 5.903698 -4.533900 -6.852246 -12.428281 -69.280074 -47.733800 116.360170 2.029282 3.685204 -13.759629 -10.426803 2.749817 0.211228 -6.922657 -8.809187 17.772435 139.817952 -78.671184 -163.434338 7.432413 -4.308861 -2.926622 -4.242235 -8.831426 10.969256 -25.882619 74.327675 -23.962030 0.467004 -12.970589 -2.172753 -0.354305 0.777638 -0.137221 -1.504607 -15.214956 1.665310 13.976778 61.785385 7.319462 -2.454953 -4.137261 1.649483 -0.292797 -0.715035 -0.106390
-68.179909 63.142643 12.586927 163.638495 -51.684016 -2.772129 8.501071 26.009704 4.833057 1.360991 4.570794 0.377512 2.166037 7.221774 0.642736 6.885924 21.211682 2.820727 1.603282 15.490899 1.614248 2.379304 -7.060033 2.453993 5.614931 3.306384 5.898956 -4.539006 -6.851145 -12.426665 -69.221154 -47.758167 116.302904 2.035684 3.670888 -13.760894 -10.428494 2.738886 0.226767 -6.913466 -8.798551 17.753297 139.844758 -78.678080 -163.464052 7.412711 -4.250237 -2.921873 -4.238366 -8.836288 10.972424 -25.911424 74.322376 -24.003237 0.461894 -12.969990 -2.159608 -0.356514 0.778488 -0.140809 -1.500169 -15.218480 1.658510 13.989008 61.784087 7.328154 -2.467892 -4.146355 1.650499 -0.292035 -0.707261 -0.103482
-68.184837 63.143617 12.584270 163.658188 -51.682625 -2.766773 8.481522 26.012483 4.814051 1.360561 4.570915 0.377272 2.170745 7.224731 0.648258 6.876762 21.214826 2.814675 1.606971 15.492211 1.606000 2.394943 -7.057834 2.430234 5.642360 3.283773 5.888032 -4.513111 -6.863056 -12.435621 -69.086397 -47.792587 116.155790 2.055266 3.650914 -13.779323 -10.424926 2.714703 0.250949 -6.905968 -8.779693 17.722737 139.864540 -78.711709 -163.481741 7.406206 -4.228358 -2.930252 -4.245210 -8.838276 10.961442 -25.985714 74.316559 -24.092171 0.464414 -12.969971 -2.146313 -0.354125 0.774734 -0.138294 -1.491771 -15.217714 1.637463 14.008129 61.779314 7.343229 -2.490579 -4.152197 1.661136 -0.297680 -0.705979 -0.108677
